# xmcd
#
# Track frame offsets: 
#        150
#        46640
#        82022
#        124415
#        156995
#        199212
#        212795
#
# Disc length: 3096 seconds
#
# Revision: 1
# Processed by: cddbd v1.5.2PL0 Copyright (c) Steve Scherf et al.
# Submitted via: ExactAudioCopyFreeDBPlugin 1.0
#
DISCID=610c1607
DTITLE=Andrzej Jagodziñski Trio - Deep Cut
DYEAR=1997
DGENRE=Jazz
TTITLE0=Deep Cut
TTITLE1=Going Down
TTITLE2=Django
TTITLE3=Lonesome Dancer
TTITLE4=Walk In Space
TTITLE5=Petite Valse Brillante
TTITLE6=Beethoven
EXTD=YEAR: 1997
EXTT0=
EXTT1=
EXTT2=
EXTT3=
EXTT4=
EXTT5=
EXTT6=
PLAYORDER=
